#N canvas 3842 79 1916 999 12;
#N canvas 3842 79 1916 999 bd~ 0;
#X obj 68 181 inlet;
#X text 28 26 demon: bass drum voice;
#X obj 536 47 route pitch dur pgprop pgdur noiseamt lop;
#X obj 929 64 bng 15 250 50 0 empty empty empty 17 7 0 10 -262144 -1
-1;
#X msg 929 84 error;
#X obj 929 106 print bd-\$0;
#X obj 1041 250 f;
#X text 1097 230 lowpass (hz);
#X obj 1041 184 f \$6;
#X obj 1041 206 moses 29.999;
#X msg 1041 228 1250;
#X obj 405 43 loadbang;
#X obj 55 380 t b b;
#X obj 68 273 route bang float;
#X obj 103 345 t b f;
#X msg 66 316 1;
#X obj 164 229 f;
#X obj 452 217 * 0.25;
#X obj 469 255 f;
#X obj 163 136 f \$1;
#X obj 549 245 f;
#X text 436 173 pitch glide proportion;
#X obj 302 218 f;
#X obj 675 251 f;
#X text 723 222 glide dur (prop);
#X obj 847 225 f;
#X obj 847 247 / 100;
#X text 897 208 noisiness (percent);
#X obj 540 308 *;
#X obj 617 268 t b f;
#X obj 296 147 f \$2;
#X obj 537 156 f \$3;
#X obj 669 180 f \$4;
#X obj 848 159 f \$5;
#X text 351 194 note dur (ms);
#X text 191 184 main pitch (hz);
#X obj 296 169 moses 4.9999;
#X obj 164 159 moses 19.9999;
#X obj 542 191 moses 1e-09;
#X obj 669 202 moses 1e-09;
#X obj 847 181 moses 1e-20;
#X msg 296 191 300;
#X msg 669 224 0.9;
#X msg 532 211 0.3;
#X obj 549 267 t b f;
#X msg 156 197 45;
#X msg 847 203 0.2, f 6;
#X obj 309 614 +~;
#X obj 354 573 noise~;
#X obj 310 645 cos~;
#X obj 358 485 vline~;
#X obj 293 526 +~ 50;
#X obj 357 371 pack 0 0;
#X obj 433 352 sqrt;
#X obj 358 507 *~;
#X msg 369 430 0 \, \$1 2 0 \, 0 \$2 2;
#X obj 350 597 *~ 0.003;
#X obj 302 696 lop~ 750;
#X obj 269 567 phasor~ 50;
#X obj 450 663 *~;
#X obj 485 636 vline~;
#X obj 536 402 f;
#X obj 485 658 *~;
#X msg 498 581 0 2 \, 1 2 2 \, 0 \$1 4;
#X obj 450 753 *~ 1;
#X obj 451 810 outlet~;
#X obj 540 7 inlet;
#X text 870 521 args: 1 main pitch \, 2 note dur (ms) \, 3 pitch glide
prop \, 4 glide dur prop \, 5 noisiness (%) \, 6 lowpass hz;
#X text 872 573 inlets: 1 trigger \, 2 main pitch/note dur/itch glide
prop/glide dur prop/noisiness (%)/lowpass (hz);
#X text 876 681 args for 2nd inlet: pitch: main pitch \, dur: note
duration \, pgprop: pitch glide prop \, pgdur: pitch glide dur prop
\, noiseamt: noisiness( %) \, lop: lowpass(hz);
#X text 876 634 defaults: main pitch - 50 \, note dur - 125 \, pitch
glide prop - 0.75 \, glide dur prop - 0.75 \, noisiness - 0.3 \, lowpass
- 500;
#X connect 0 0 13 0;
#X connect 2 0 19 0;
#X connect 2 1 30 0;
#X connect 2 2 31 0;
#X connect 2 3 32 0;
#X connect 2 4 33 0;
#X connect 2 5 8 0;
#X connect 2 6 3 0;
#X connect 3 0 4 0;
#X connect 4 0 5 0;
#X connect 6 0 57 1;
#X connect 8 0 9 0;
#X connect 9 0 10 0;
#X connect 9 1 6 0;
#X connect 10 0 6 0;
#X connect 11 0 8 0;
#X connect 11 0 19 0;
#X connect 11 0 30 0;
#X connect 11 0 31 0;
#X connect 11 0 32 0;
#X connect 11 0 33 0;
#X connect 12 0 18 0;
#X connect 12 1 61 0;
#X connect 13 0 15 0;
#X connect 13 1 14 0;
#X connect 14 0 12 0;
#X connect 14 1 64 1;
#X connect 15 0 14 0;
#X connect 16 0 17 0;
#X connect 16 0 51 1;
#X connect 17 0 18 1;
#X connect 18 0 52 0;
#X connect 19 0 37 0;
#X connect 20 0 44 0;
#X connect 22 0 28 0;
#X connect 22 0 61 1;
#X connect 23 0 29 0;
#X connect 25 0 26 0;
#X connect 26 0 56 1;
#X connect 28 0 53 0;
#X connect 29 0 28 0;
#X connect 29 1 28 1;
#X connect 30 0 36 0;
#X connect 31 0 38 0;
#X connect 32 0 39 0;
#X connect 33 0 40 0;
#X connect 36 0 41 0;
#X connect 36 1 22 0;
#X connect 37 0 45 0;
#X connect 37 1 16 0;
#X connect 38 0 43 0;
#X connect 38 1 20 0;
#X connect 39 0 42 0;
#X connect 39 1 23 0;
#X connect 40 0 46 0;
#X connect 40 1 25 0;
#X connect 41 0 22 0;
#X connect 42 0 23 0;
#X connect 43 0 20 0;
#X connect 44 0 17 0;
#X connect 44 1 17 1;
#X connect 45 0 16 0;
#X connect 46 0 25 0;
#X connect 47 0 49 0;
#X connect 48 0 56 0;
#X connect 49 0 57 0;
#X connect 50 0 54 0;
#X connect 50 0 54 1;
#X connect 51 0 58 0;
#X connect 52 0 55 0;
#X connect 53 0 52 1;
#X connect 54 0 51 0;
#X connect 55 0 50 0;
#X connect 56 0 47 1;
#X connect 58 0 47 0;
#X connect 59 0 64 0;
#X connect 60 0 62 0;
#X connect 60 0 62 1;
#X connect 61 0 63 0;
#X connect 62 0 59 1;
#X connect 63 0 60 0;
#X connect 64 0 65 0;
#X connect 66 0 2 0;
#X restore 267 178 pd bd~;
#N canvas 3842 79 1916 999 cym~ 0;
#X restore 171 39 pd cym~;
#N canvas 3842 79 1916 999 ch~ 0;
#X restore 301 40 pd ch~;
#N canvas 3842 79 1916 999 sn~ 0;
#X restore 357 40 pd sn~;
#N canvas 3842 79 1916 999 cp~ 0;
#X restore 238 39 pd cp~;
#N canvas 3842 79 1916 999 aclip~ 0;
#X restore 666 83 pd aclip~;
